<svg xmlns="http://www.w3.org/2000/svg" xmlns:xlink="http://www.w3.org/1999/xlink" version="1.1" x="0px" y="0px" viewBox="0 0 128 160" style="enable-background:new 0 0 128 128;" xml:space="preserve"><g><g><path d="M94,57H28.6c-6.7,0-12.1-5.8-12.1-12.9c0-8.5,5-15.9,12.3-18.7c1.1-9,8.9-16,18.4-16c1.5,0,2.9,0.2,4.4,0.5    c3.4-5.8,9.2-9.2,15.6-9.2c10.2,0,18.5,8.9,18.5,19.9c0,1.2-0.1,2.4-0.3,3.6h2.2c10.2,0,18.5,8.9,18.5,19.9    C106.1,51.2,100.7,57,94,57z M47.2,14.4c-7.3,0-13.4,5.8-13.5,12.9l0,1.9l-1.8,0.5c-6,1.6-10.3,7.7-10.3,14.4    c0,4.4,3.2,7.9,7.1,7.9H94c3.9,0,7.1-3.6,7.1-7.9c0-8.2-6.1-14.9-13.5-14.9h-8.9l1.1-3.3c0.6-1.7,0.9-3.5,0.9-5.3    c0-8.2-6.1-14.9-13.5-14.9c-5.1,0-9.8,3.2-12.1,8.3l-1,2.1L52,15.3C50.4,14.7,48.8,14.4,47.2,14.4z"/></g><g><polygon points="52,96.8 6.9,96.8 6.9,91.8 47,91.8 47,54.9 52,54.9   "/></g><g><polygon points="118.2,96.8 70.5,96.8 70.5,54.9 75.5,54.9 75.5,91.8 118.2,91.8   "/></g><g><polygon points="41.2,78.5 23.1,78.5 23.1,73.5 36.2,73.5 36.2,54.9 41.2,54.9   "/></g><g><polygon points="102.1,78.5 81.3,78.5 81.3,54.9 86.3,54.9 86.3,73.5 102.1,73.5   "/></g><rect x="58.8" y="55.3" width="5" height="67.2"/><path d="M29.4,84.6c-0.6,0-1.3-0.2-1.8-0.7l-8.1-8l7.5-7.6c1-1,2.6-1,3.5,0c1,1,1,2.6,0,3.5l-4,4l4.5,4.5c1,1,1,2.6,0,3.5   C30.7,84.3,30.1,84.6,29.4,84.6z"/><path d="M13.3,102.8c-0.6,0-1.3-0.2-1.8-0.7l-8.1-8l7.5-7.6c1-1,2.6-1,3.5,0c1,1,1,2.6,0,3.5l-4,4l4.5,4.5c1,1,1,2.6,0,3.5   C14.5,102.5,13.9,102.8,13.3,102.8z"/><path d="M98.6,84.6c-0.6,0-1.3-0.2-1.8-0.7c-1-1-1-2.6,0-3.5l4.5-4.5l-4-4c-1-1-1-2.6,0-3.5c1-1,2.6-1,3.5,0l7.5,7.6l-8.1,8   C99.8,84.3,99.2,84.6,98.6,84.6z"/><path d="M114.7,102.8c-0.6,0-1.3-0.2-1.8-0.7c-1-1-1-2.6,0-3.5l4.5-4.5l-4-4c-1-1-1-2.6,0-3.5c1-1,2.6-1,3.5,0l7.5,7.6l-8.1,8   C116,102.6,115.4,102.8,114.7,102.8z"/><path d="M61,127.3l-7.6-7.5c-1-1-1-2.6,0-3.5c1-1,2.6-1,3.5,0l4,4l4.5-4.5c1-1,2.6-1,3.5,0c1,1,1,2.6,0,3.5L61,127.3z"/></g></svg>