<svg xmlns="http://www.w3.org/2000/svg" xmlns:xlink="http://www.w3.org/1999/xlink" version="1.1" x="0px" y="0px" viewBox="0 0 128 160" style="enable-background:new 0 0 128 128;" xml:space="preserve"><g><path d="M117.2,94.5l-2.9-0.1l-5.2-7.8l-3,4.9l-4.4-9.2l-3,5l-4.8-16.1l-5.1,22.5l-4.9-10.4l-3.9,10.8h-8.6c-1.4,0-2.5,1.1-2.5,2.5   s1.1,2.5,2.5,2.5h12.1l1-2.8l6,12.7l4.1-18l2.6,8.7l4.1-6.8l4.4,9l3.7-6l2.2,3.4l5.5,0.2c0,0,0.1,0,0.1,0c1.3,0,2.5-1.1,2.5-2.4   C119.6,95.7,118.6,94.6,117.2,94.5z"/><path d="M11,45.8c0.2,0,0.3,0,0.5,0c1.2,0,2.2-0.8,2.5-2c0.2-1,0.5-1.4,0.6-1.5c0.1,0,0.3,0,0.5-0.1c0.6,0,1.4-0.1,2.4-0.5   c2-0.7,3.2-2.1,3.7-2.6c1.6-1.7,1.9-3.4,2.2-5.1c0.2-1.1,0.4-2.4,1.1-4c0.2-0.5,0.4-1.1,0.7-1.6c0.2,0.3,0.6,0.7,1,1.4   c1.5,2.3,1.8,4.5,2.1,6.3c0.3,2,0.7,4.2,2.9,4.9c3.1,1,5.8-2.6,6.3-3.4c0.5-0.8,0.8-1.4,0.9-1.9c0.2-0.5,0.3-0.8,0.6-1.2   c0.1-0.1,0.2-0.3,0.4-0.5c0.1,0.1,0.2,0.2,0.3,0.4c0.1,0.1,0.1,0.1,0.1,0.4c0.1,0.4,0.2,1.1,0.7,1.9c1.4,2.8,3.2,3.6,4.5,3.7   c1.4,0.2,2.4-0.4,4.8-2.1l1-0.7c0.1-0.1,0.3-0.2,0.4-0.3c0.2,0.2,0.4,0.5,0.6,0.7c0.2,0.3,0.4,0.6,0.5,0.8c0.4,0.6,0.9,1.6,2.2,2.1   c0.9,0.3,2.2,0.5,4-0.4c1.2-0.6,1.7-2.2,1-3.4c-0.6-1.1-2-1.6-3.1-1.1c-0.2-0.3-0.4-0.6-0.7-1c-0.8-1.1-2.1-2.7-4.1-2.9   c-1.4-0.2-2.3,0.4-3.7,1.4l-1,0.7c-0.7,0.5-1.2,0.8-1.5,1c-0.1-0.2-0.3-0.4-0.5-0.8c-0.1-0.2-0.1-0.4-0.2-0.6   c-0.1-0.5-0.2-1.2-0.8-2.1c-1.2-2-3-3.1-4.8-3c-2.1,0.1-3.3,1.7-4.1,2.8c-0.8,1.1-1.1,1.9-1.3,2.5c-0.1,0.4-0.2,0.6-0.4,0.9   c0,0.1-0.1,0.1-0.2,0.2c-0.3-2-0.9-4.9-2.8-7.9c-0.9-1.4-2.9-4.6-6-4.1c-2.6,0.4-3.6,2.9-4.5,5.1c-0.9,2.1-1.1,3.7-1.4,5   c-0.3,1.5-0.4,2-1,2.7c-0.3,0.4-0.9,1-1.7,1.3c-0.4,0.1-0.7,0.2-1.1,0.2c-0.7,0.1-1.6,0.1-2.6,0.7c-1.5,0.9-2.5,2.5-3,4.8   C8.8,44.2,9.7,45.6,11,45.8z"/><path d="M95.9,51.4L83.8,17.5L71.6,51.4H95.9z M88.8,46.4H78.7l5.1-14.1L88.8,46.4z"/><path d="M108.2,31.1l-11,20.2h21.9L108.2,31.1z M108.2,41.6l2.6,4.7h-5.1L108.2,41.6z"/><path d="M33.4,75.1c-10.3,0-18.6,8.4-18.6,18.6c0,10.3,8.4,18.6,18.6,18.6S52,104,52,93.7C52,83.5,43.7,75.1,33.4,75.1z    M33.4,107.4c-7.5,0-13.6-6.1-13.6-13.6s6.1-13.6,13.6-13.6S47,86.2,47,93.7S40.9,107.4,33.4,107.4z"/><path d="M35.9,92.7v-8.9c0-1.4-1.1-2.5-2.5-2.5s-2.5,1.1-2.5,2.5v11l5.4,5.4c0.5,0.5,1.1,0.7,1.8,0.7s1.3-0.2,1.8-0.7   c1-1,1-2.6,0-3.5L35.9,92.7z"/><path d="M2.1,2.1v123.8h123.8V2.1H2.1z M120.9,61.5H66.5V7.1h54.4V61.5z M61.5,7.1v54.4H7.1V7.1H61.5z M7.1,66.5h54.4v54.4H7.1   V66.5z M66.5,120.9V66.5h54.4v54.4H66.5z"/></g></svg>